<svg xmlns="http://www.w3.org/2000/svg" xmlns:xlink="http://www.w3.org/1999/xlink" viewBox="0 0 1920 1080"><defs><style>.a{clip-path:url(#i);}.b,.n,.t{fill:#ab3f61;}.b{opacity:0.5;}.c{fill:url(#a);}.d{fill:#535461;}.e{fill:#ededf4;}.f{fill:#fa595f;}.g{fill:#ffc74c;}.h{fill:#85d459;}.i,.u{fill:#fff;}.af,.j,.k,.l,.m,.o{fill:none;}.j,.k,.l{stroke:#ab3f61;}.af,.j,.k,.l,.o{stroke-miterlimit:10;}.k{stroke-dasharray:11.69 11.69;}.l{stroke-dasharray:11.79 11.79;}.aa,.m,.p,.v{opacity:0.1;}.af,.o{stroke:#535461;}.q{fill:url(#b);}.r{fill:url(#d);}.s{opacity:0.6;}.t{opacity:0.3;}.u{opacity:0.4;}.v{fill:#252223;}.w{fill:url(#e);}.x{fill:url(#f);}.y{fill:#f2f2f2;}.z{fill:#f7bbc3;}.ab{fill:#8499f0;}.ac{fill:#b77983;}.ad{fill:#d39999;}.ae{fill:#74585e;}.af{stroke-width:2px;}.ag{fill:#f9f9fb;}</style><linearGradient id="a" x1="0.5" y1="1" x2="0.5" gradientUnits="objectBoundingBox"><stop offset="0" stop-color="gray" stop-opacity="0.251"/><stop offset="0.54" stop-color="gray" stop-opacity="0.122"/><stop offset="1" stop-color="gray" stop-opacity="0.102"/></linearGradient><linearGradient id="b" x1="0.5" x2="0.5" y2="0.04" xlink:href="#a"/><linearGradient id="d" x1="0.5" y1="1.001" x2="0.5" xlink:href="#a"/><linearGradient id="e" x1="0" y1="0.484" x2="1" y2="0.484" xlink:href="#a"/><linearGradient id="f" x1="0.024" y1="0.484" x2="1" y2="0.484" xlink:href="#a"/><clipPath id="i"><rect width="1920" height="1080"/></clipPath></defs><g id="h" class="a"><rect class="ag" width="1920" height="1080"/><g transform="translate(-87.265 96.213)"><g transform="translate(727.82 232.499)"><path class="b" d="M209.235,527.987c-15.685.684-32.43,3.947-43.354,15.227-18.209,18.791-10.589,52.944,10.37,68.629s49.935,16.171,75.3,9.659c13.633-3.5,27.669-8.851,41.377-5.636,17.272,4.049,29.284,20.7,46.4,25.357,23,6.286,45.016-10.609,67.179-19.468,37.827-15.138,84.355-5.2,112.7,24.071,7.914,8.167,14.693,17.826,24.577,23.442,9.994,5.684,21.964,6.539,33.456,6.45,34.523-.274,68.513-7.907,102.188-15.5,21.383-4.788,43.163-9.8,62.069-20.891s34.831-29.509,37.3-51.3c.431-3.8.417-7.8-1.259-11.245-2.77-5.7-9.248-8.393-15.179-10.616-17.621-6.6-37.424-13.188-54.723-5.719-4.535,1.963-8.742,4.857-13.585,5.855-13.824,2.839-25.118-10.028-35.885-19.153-33.326-28.237-81.893-25.658-124.426-35.761-49.531-11.724-102.12-21.315-153.614-13.852-25.911,3.755-45.83,21.349-70.586,28.148C276.914,534.642,242.452,526.571,209.235,527.987Z" transform="translate(-140.152 -252.649)"/><path class="c" d="M127.8,0V332.5H508.315V0Z" transform="translate(-40.385)"/><rect class="d" width="375.652" height="10.637" transform="translate(89.85)"/><rect class="e" width="375.652" height="314.957" transform="translate(89.85 10.336)"/><circle class="f" cx="1.826" cy="1.826" r="1.826" transform="translate(95.015 3.338)"/><circle class="g" cx="1.826" cy="1.826" r="1.826" transform="translate(100.48 3.338)"/><circle class="h" cx="1.826" cy="1.826" r="1.826" transform="translate(105.952 3.338)"/><rect class="i" width="288.123" height="113.064" transform="translate(133.615 28.805)"/><path class="j" d="M614.654,201.4v4.1h-4.1" transform="translate(-192.917 -63.635)"/><line class="k" x1="267.923" transform="translate(141.714 141.869)"/><path class="j" d="M199.444,205.5h-4.1v-4.1" transform="translate(-61.725 -63.635)"/><line class="l" y1="92.755" transform="translate(133.615 36.945)"/><path class="j" d="M195.34,46.214v-4.1h4.1" transform="translate(-61.725 -13.305)"/><line class="k" x2="267.916" transform="translate(145.715 28.805)"/><path class="j" d="M610.55,42.11h4.1v4.1" transform="translate(-192.917 -13.305)"/><line class="l" y2="92.755" transform="translate(421.738 40.974)"/><rect class="i" width="147.102" height="6.081" transform="translate(204.125 157.67)"/><rect class="i" width="147.102" height="6.081" transform="translate(130.42 214.267)"/><rect class="i" width="147.102" height="6.081" transform="translate(130.42 227.64)"/><rect class="i" width="147.102" height="6.081" transform="translate(130.42 241.013)"/><rect class="i" width="147.102" height="6.081" transform="translate(130.42 254.386)"/><rect class="i" width="147.102" height="6.081" transform="translate(130.42 267.759)"/><rect class="i" width="147.102" height="6.081" transform="translate(130.42 281.132)"/><rect class="i" width="147.102" height="6.081" transform="translate(130.42 294.505)"/><rect class="i" width="63.219" height="6.081" transform="translate(246.064 169.826)"/><path class="b" d="M524.9,281.853a30.26,30.26,0,1,1,.007,0Zm0-54.9a24.509,24.509,0,1,1-24.509,24.509A24.509,24.509,0,0,1,524.9,226.953Zm2.449,40.194h-4.9a1.477,1.477,0,0,1-1.471-1.471V251.462h-8.208a1.471,1.471,0,0,1-1.04-2.51l12.135-12.135a1.471,1.471,0,0,1,2.052,0l12.135,12.135a1.471,1.471,0,0,1-1.04,2.51H528.8v14.214a1.477,1.477,0,0,1-1.443,1.471Z" transform="translate(-247.229 -166.128)"/><path class="m" d="M234.493,476.428c7.524,27.519-24.577,105.909-24.577,105.909s-67.542-51.132-75.066-78.664a51.651,51.651,0,1,1,99.644-27.245Z" transform="translate(-133.007 -234.792)"/><path class="n" d="M281.484,566.377s-38.128-20.74-33.3,55.817c0,0,31.808-1.135,43.094-27.081a22.5,22.5,0,0,0-9.235-28.435Z" transform="translate(-169.265 -274.424)"/><path class="o" d="M282.331,567.75s-4.925,39.742-33.921,55.687" transform="translate(-169.47 -275.667)"/><g class="p" transform="translate(512.407 191.085)"><path class="q" d="M882.1,420.271a1.755,1.755,0,0,0,.123-.171Z" transform="translate(-882.1 -420.1)"/></g><path class="c" d="M465.48,70.7V188.286H757.249V70.7Z" transform="translate(-147.08 -22.339)"/><path class="r" d="M846.641,411.824a14.522,14.522,0,0,0-1.368-6.081l-8.5-20.35s-.308.424-.834,1.006c-.623-5.192-2.989-15.1-11.923-15.733-12.149-.882-16.417,5.308-13.968,5.9s12.757,4.72,12.757,4.72l4.788,7.859c-.089-.061-.171-.123-.26-.191l.178.718-.178-.13.178.718-.178-.13,4.624,19.085-9.44,8.626s-9.111,4.426-13.681,4.1a16.409,16.409,0,0,0-2.593.055l.342-.226,3.01-2c2.326-1.539,4.754-3.2,5.917-5.691v-.041c.1-.178.2-.363.287-.547,1.224-2.62.8-5.636.862-8.509a42.972,42.972,0,0,0,.082-5.247,15.129,15.129,0,0,0-1.416-4.788,17.614,17.614,0,0,0-6.355-7.524,12.915,12.915,0,0,0-9.693-1.826,6.719,6.719,0,0,1-1.648.287,8.153,8.153,0,0,1-3-1.1,6.286,6.286,0,0,0-7.21,2.052c-.684.9-1.033,1.977-1.724,2.852-1.026,1.306-2.688,2.127-3.379,3.625l-.068.164a3.715,3.715,0,0,0-.239.424c-.684,1.478-.233,3.195-.376,4.788a13,13,0,0,1-1.368,4.1,3.418,3.418,0,0,0,.814-.4,14.063,14.063,0,0,0-.2,11.246,24.974,24.974,0,0,1-2.681,8.318l-.089.082h-.041l-.246.192h0l-.274.185q.472-.732,1.088-1.525c-.6.725-3.42,3.5-9.289.13-6.683-3.831-22.47-3.831-22.47-3.831l-15.733-7.052c.287-4.966,1.621-24.358,4.788-25.391a9.715,9.715,0,0,1-.937.308h0l.075-.123.075-.109.075-.1.082-.1.075-.082.082-.082.075-.062.089-.068.075-.048.1-.048.123-.055s-.328.13-.862.28l.28-.465a1.369,1.369,0,0,1,.581-.41s-.157.062-.417.15l4.063-6.635s10.322-4.1,12.757-4.72-1.82-6.786-13.968-5.9c-8.208.6-10.876,9.029-11.738,14.419-.034-.089-.075-.171-.109-.267L714.41,411.954a1.556,1.556,0,0,0,.075.4l-.075.192a1.555,1.555,0,0,0,.075.4l-.075.192A12.617,12.617,0,0,0,722,422.57l25.207,15.049s10.945,6.485,10.945,22.71,2.127,41.877,2.127,41.877.417.246,1.183.684c-1.9,5.3-5.575,14.768-8.174,16.417-3.646,2.36-12.757,22.71-12.757,22.71h.274l-.267.588h1.368l-7.435,14.44s-2.428,6.485,0,10.616,1.819,12.682,1.819,12.682,4.857,13.859,8.8,20.35c2,3.3,2.367,7.347,2.23,10.541l-8.3,13.64s-3.947,3.536-6.984,2.948c-1.423-.274-2.846,1.519-2.675,3.324v.773h0a.548.548,0,0,0,.034.185v.062l.041.144v.068l.048.144v.062l.075.171h0l.109.192v.048l.1.144.048.062.1.123.055.062.116.13.048.048.185.171h0l.178.144.068.048.15.1.082.055.164.1.089.048.212.109h.055l.287.123h.082l.233.082.116.034.226.068.123.034.253.062h.116l.39.075h0l.383.055h3.448l.424-.041h.2l.643-.082c12.449-1.772,27.026-8.256,27.026-8.256h0a24.538,24.538,0,0,0,.1-2.6c.041-3.536-.561-10.568-5.725-12.532h-.267c-1.272-3.926-2.305-8.892-1.4-13.12,1.819-8.55-5.164-24.174-5.164-29.489,0-1.177-1.519-3.831,1.518-7.668,1.416-1.785,4.672-4.85,7.716-8.208a13.876,13.876,0,0,1-1.04,1.368,2.739,2.739,0,0,0,.4.082c-.13.164-.26.335-.4.506,0,0,4.043,1.307,7.312-4.467.2-.349.4-.732.588-1.135,3.338-7.08,11.841-17.1,16.1-16.513,3.92.54,12.75,8.113,14.577,13.448a6.451,6.451,0,0,1,.3,1.3c.609,5.308,8.5,5.9,8.5,5.9l-.479-.643.3.034a87.891,87.891,0,0,1,4.74,8.277c2.428,5.308,2.127,8.845,2.127,8.845-6.683,13.564-4.255,21.821-4.255,30.1a36.716,36.716,0,0,1-.684,6.683c-4.33,2.675-5.1,14.549-5.1,14.549l.041.048h0v.54s8.927,9.255,20.781,10.425l.554.048h4.658l.2-.041h.151l.191-.041.137-.034.185-.048.123-.034.178-.055.116-.041.171-.062.109-.041.164-.068.1-.041.164-.068.089-.041.157-.075.082-.041.151-.082.068-.041.144-.089.062-.041.137-.1.055-.041.13-.1.048-.034.123-.109.041-.034.123-.116h0l.116-.123h0l.11-.13h0l.1-.137h0l.089-.144h0l.082-.15h0l.075-.157h0a2.58,2.58,0,0,0,.219-1.368,2.517,2.517,0,0,0-2.51-2.811c-3.646,0-5.472-4.1-5.472-4.1l-6.43-15.2-.157-.041c.274-1.5.513-2.955.616-3.94.185-1.826,3.872-10.89,6.649-17.525a41.392,41.392,0,0,0,3.1-12.456,35.621,35.621,0,0,1,1.183-6.58,13.9,13.9,0,0,0-.226-8.208,31.062,31.062,0,0,1-1.464-7.018,28.737,28.737,0,0,0-3.3-10.192h.13l-.2-.643.2.048s-6.074-19.755-9.111-22.409c-2.2-1.922-7.271-10.945-10.007-16.588a27.148,27.148,0,0,0,1.505-2.285l-.089-.445.089-.144-.089-.445.089-.144s-3.085-15.3-3.2-26.281c.034-3.53.424-6.505,1.368-8.208,0,0,1.218-18.578,10.945-22.115L844.1,418.425s2.7-1.642,2.565-6.013C846.648,412.221,846.648,412.03,846.641,411.824Zm-69.033,11.218h0l.274-.417Zm21.527.684s-.048.28-.171.746a9.888,9.888,0,0,1-.9-2.148,15.082,15.082,0,0,0,2.346-.725,4.05,4.05,0,0,0,1.751,1.163,28.483,28.483,0,0,0-3.023.971Zm6.088,124.228c.684,1.019,1.368,2.107,2.052,3.215-.65-.937-1.443-2.127-2.052-3.208Z" transform="translate(-316.709 -212.045)"/><rect class="i" width="288.123" height="113.064" transform="translate(319.919 50.147)"/><g class="s" transform="translate(350.618 57.767)"><path class="t" d="M741.13,144.043v45.851H512.58V120.355h7.175V102.639h27.286v17.717h7.422v53.122h9.57V156.246h11.492v17.231h9.57V144.043h.479V128.728h9.1v15.316h21.055V167.02H627.45v-7.182h7.189v7.182h11.724V99.047h15.316V88.281h2.634V99.047h4.3v21.308h7.661V102.639h6.457V84.45h13.407v18.189H702.6v17.717h7.9v23.688h10.767V128.728h9.1v15.316Z" transform="translate(-512.58 -84.45)"/><rect class="u" width="10.048" height="5.746" transform="translate(4.549 41.405)"/><rect class="u" width="10.048" height="5.746" transform="translate(37.095 47.144) rotate(180)"/><rect class="u" width="10.048" height="5.746" transform="translate(4.549 52.65)"/><rect class="u" width="10.048" height="5.746" transform="translate(37.095 58.396) rotate(180)"/><rect class="u" width="10.048" height="5.746" transform="translate(4.549 63.903)"/><rect class="u" width="10.048" height="5.746" transform="translate(37.095 69.642) rotate(180)"/><rect class="u" width="10.048" height="5.746" transform="translate(4.549 75.148)"/><rect class="u" width="10.048" height="5.746" transform="translate(37.095 80.894) rotate(180)"/><rect class="u" width="10.048" height="5.746" transform="translate(4.549 86.401)"/><rect class="u" width="10.048" height="5.746" transform="translate(37.095 92.146) rotate(180)"/><rect class="u" width="10.048" height="5.746" transform="translate(4.549 97.646)"/><rect class="u" width="10.048" height="5.746" transform="translate(37.095 103.385) rotate(180)"/><rect class="u" width="23.456" height="2.873" transform="translate(45.468 94.773)"/><rect class="u" width="23.456" height="2.873" transform="translate(45.468 99.083)"/><rect class="u" width="23.449" height="2.052" transform="translate(45.475 103.385)"/><rect class="u" width="23.456" height="2.873" transform="translate(106.737 96.21)"/><rect class="u" width="23.456" height="2.873" transform="translate(106.737 100.519)"/><rect class="u" width="23.449" height="0.616" transform="translate(106.737 104.828)"/><rect class="u" width="6.464" height="8.379" transform="translate(77.542 65.1)"/><rect class="u" width="6.464" height="8.379" transform="translate(98.118 73.479) rotate(180)"/><rect class="u" width="6.464" height="8.379" transform="translate(77.542 78.5)"/><rect class="u" width="6.464" height="8.379" transform="translate(98.118 86.873) rotate(180)"/><rect class="u" width="6.464" height="8.379" transform="translate(77.542 91.9)"/><rect class="u" width="6.464" height="8.379" transform="translate(98.118 100.28) rotate(180)"/><rect class="u" width="6.464" height="0.137" transform="translate(77.535 105.3)"/><rect class="u" width="6.464" height="0.137" transform="translate(91.661 105.3)"/><rect class="u" width="8.619" height="11.006" transform="translate(133.784 20.104)"/><rect class="u" width="8.619" height="11.006" transform="translate(133.784 35.898)"/><rect class="u" width="8.619" height="11.006" transform="translate(133.784 51.693)"/><rect class="u" width="8.619" height="11.006" transform="translate(133.784 67.494)"/><rect class="u" width="8.619" height="11.006" transform="translate(133.784 83.288)"/><rect class="u" width="8.612" height="6.362" transform="translate(133.784 99.083)"/><rect class="u" width="32.068" height="9.33" transform="translate(160.947 42.602)"/><rect class="u" width="32.068" height="9.33" transform="translate(161.063 62.706)"/><rect class="u" width="32.068" height="9.33" transform="translate(161.186 82.809)"/><path class="u" d="M775.5,237.431h4.959V234.9H748.39v2.531H775.5Z" transform="translate(-587.088 -131.987)"/><rect class="u" width="4.309" height="9.098" transform="translate(7.182 23.216)"/><rect class="u" width="10.767" height="13.879" transform="translate(217.783 65.1)"/><rect class="u" width="10.767" height="13.879" transform="translate(217.783 85.203)"/><rect class="u" width="10.774" height="0.137" transform="translate(217.783 105.3)"/><path class="v" d="M730.379,240.814H728.73a1.156,1.156,0,1,0,0-2.305H715.392a1.156,1.156,0,1,0,0,2.305h1.649a1.156,1.156,0,1,0,0,2.305h-2.305a1.156,1.156,0,1,0,0,2.305h13.339a1.156,1.156,0,0,0,0-2.305h2.305a1.156,1.156,0,0,0,0-2.305Z" transform="translate(-667.037 -229.404)"/><path class="v" d="M816.531,283.155h-1.648a1.156,1.156,0,0,0,0-2.305H801.544a1.156,1.156,0,0,0,0,2.305h1.649a1.156,1.156,0,1,0,0,2.305h-2.305a1.156,1.156,0,0,0,0,2.305h13.339a1.156,1.156,0,0,0,0-2.305h2.3a1.156,1.156,0,1,0,0-2.305Z" transform="translate(-694.314 -242.783)"/><path class="v" d="M963.055,227.874h-1.648a1.156,1.156,0,0,0,0-2.305H948.068a1.156,1.156,0,1,0,0,2.305h1.648a1.156,1.156,0,1,0,0,2.305h-2.291a1.156,1.156,0,1,0,0,2.305h13.339a1.156,1.156,0,0,0,0-2.305h2.305a1.156,1.156,0,0,0,0-2.305Z" transform="translate(-740.559 -225.315)"/><path class="w" d="M784.547,349.82l-.287.212A1.213,1.213,0,0,0,784.547,349.82Z" transform="translate(-689.398 -264.575)"/><path class="x" d="M784.867,350.15l-.287.212a1.211,1.211,0,0,0,.287-.212Z" transform="translate(-689.499 -264.68)"/><path class="x" d="M784.867,349.82l-.287.212A1.212,1.212,0,0,0,784.867,349.82Z" transform="translate(-689.499 -264.575)"/><ellipse class="y" cx="0.328" cy="0.438" rx="0.328" ry="0.438" transform="translate(82.765 80.555) rotate(-25.74)"/></g><path class="z" d="M754.814,618.32l-8.721,17.443s-2.326,6.4,0,10.466,1.744,12.5,1.744,12.5,4.651,13.681,8.434,20.063,1.457,15.733,1.457,15.733l15.117,1.744s-5.814-11.341-4.1-19.776-4.945-23.832-4.945-29.078c0-1.163-1.457-3.783,1.457-7.559s13.954-13.373,13.681-18.9Z" transform="translate(-326.393 -291.645)"/><path class="z" d="M861.921,612.37s5.582,7.73,6.232,15.254a31.464,31.464,0,0,0,1.368,6.916,14.092,14.092,0,0,1,.219,8.072A36.06,36.06,0,0,0,868.6,649.1a41.811,41.811,0,0,1-2.969,12.313c-2.661,6.546-6.156,15.48-6.361,17.279-.294,2.907-1.744,9.884-1.744,9.884L845.9,692.943s3.489-8.434,3.489-16.574-2.326-16.28,4.1-29.66c0,0,.294-3.489-2.052-8.721s-11.341-18.9-11.341-18.9Z" transform="translate(-356.423 -289.765)"/><path class="aa" d="M816.233,605.163c-.958,1.04,3.974,7.661,3.974,7.661s-7.559-.581-8.14-5.814a6.529,6.529,0,0,0-.294-1.279c-1.751-5.26-10.206-12.723-13.954-13.257-4.1-.581-12.21,9.3-15.411,16.28-.185.4-.369.773-.561,1.122-3.126,5.691-7,4.405-7,4.405,2.052-2.531,2.476-4.535,1.833-6.156-2.545-6.273-21.6-6.088-21.6-6.088s8.721-20.063,12.21-22.389,9.016-19.775,9.016-19.775,41.583-4.651,41.87-2.62,8.434,18.031,11.341,20.644,8.721,22.115,8.721,22.115c-9.884-2.907-20.788,4.214-21.951,5.089Z" transform="translate(-329.56 -272.188)"/><path class="ab" d="M816.239,604.31c-.958,1.04,3.974,7.661,3.974,7.661s-7.559-.581-8.14-5.814a6.529,6.529,0,0,0-.294-1.279c-1.751-5.26-10.206-12.723-13.954-13.257-4.1-.582-12.21,9.3-15.411,16.28-.185.4-.369.773-.561,1.122-3.126,5.691-6.984,4.4-6.984,4.4,2.052-2.531,2.476-4.535,1.833-6.156-2.545-6.273-21.6-6.088-21.6-6.088s8.721-20.063,12.21-22.389,9.016-19.775,9.016-19.775,41.583-4.651,41.87-2.62,8.434,18.031,11.341,20.644,8.722,22.1,8.722,22.1c-9.884-2.907-20.788,4.214-21.951,5.089Z" transform="translate(-329.566 -271.916)"/><path class="aa" d="M756.667,721.83l-8,13.523s-3.783,3.489-6.69,2.907-5.814,8.14,6.108,6.4,25.877-8.14,25.877-8.14,1.306-11.779-5.377-14.365Z" transform="translate(-324.607 -324.351)"/><path class="aa" d="M860.59,714.768l6.252,14.686s1.744,4.1,5.233,4.1,4.651,7.271-6.69,6.109-19.776-10.178-19.776-10.178.876-13.954,6.109-14.83a22.307,22.307,0,0,1,8.872.109Z" transform="translate(-358.164 -321.961)"/><path class="ac" d="M756.667,722.68l-8,13.523s-3.783,3.489-6.69,2.907-5.814,8.14,6.108,6.4,25.877-8.14,25.877-8.14,1.306-11.779-5.377-14.365Z" transform="translate(-324.607 -324.619)"/><path class="ac" d="M860.59,715.648l6.252,14.686s1.744,4.1,5.233,4.1,4.651,7.271-6.69,6.108-19.776-10.178-19.776-10.178.876-13.954,6.109-14.83A22.307,22.307,0,0,1,860.59,715.648Z" transform="translate(-358.164 -322.239)"/><g class="p" transform="translate(445.563 283.991)"><path d="M843.816,556.44c.294,2.052,8.434,18.031,11.341,20.644,2.668,2.4,7.791,19.03,8.612,21.725.527.1,1.047.219,1.567.369,0,0-5.814-19.481-8.722-22.1s-11.047-18.613-11.341-20.644c-.055-.4-1.758-.547-4.432-.506C842.66,555.975,843.768,556.118,843.816,556.44Z" transform="translate(-802.219 -555.92)"/><path d="M805.619,608.109c-4.1-.581-12.21,9.3-15.411,16.28-.185.4-.369.773-.561,1.122-1.806,3.283-3.851,4.241-5.267,4.467.937.171,4.1.315,6.724-4.467.192-.349.376-.718.561-1.122,2.934-6.4,10.021-15.24,14.317-16.212Z" transform="translate(-784.38 -572.402)"/><path d="M843.75,623.989l.048-.048c.937-.684,8.209-5.472,16.178-5.766-8.516-.294-16.636,5.021-17.635,5.766l-.048.048c-.841.917,2.866,6.156,3.776,7.388a13.241,13.241,0,0,0,1.649.267S842.792,625.022,843.75,623.989Z" transform="translate(-802.64 -575.587)"/></g><path class="z" d="M735.09,387.793s0-17.737,11.629-18.613,15.733,5.233,13.373,5.814-12.21,4.651-12.21,4.651l-6.4,10.76Z" transform="translate(-323.244 -212.899)"/><path class="z" d="M877.156,393.743s0-17.737-11.629-18.613-15.733,5.233-13.373,5.814,12.21,4.651,12.21,4.651l6.4,10.76Z" transform="translate(-360.03 -214.779)"/><path class="z" d="M808.416,429.16s.875,11.629-6.4,18.318,16.889,15.09,16.889,15.09l10.76-12.791s-8.721-5.233-4.1-14.248Z" transform="translate(-343.96 -231.877)"/><path class="aa" d="M780.159,430.862s-2.62,4.1-9.016.294-21.513-3.81-21.513-3.81l-15.117-6.977s1.163-25.008,4.651-26.171c0,0-6.977,2.907-9.016-2.907L718.52,422.113s.876,6.69,7.271,9.3l24.133,14.83s10.466,6.4,10.466,22.388,2.052,41.288,2.052,41.288,33.7,20.377,47.383-3.461c0,0-5.527-28.2-1.744-35.187,0,0,1.163-18.318,10.466-21.807l24.112-22.122s4.651-2.907,1.163-11.341l-8.14-20.063s-4.946,6.977-9.016,3.489l4.651,19.775-9.3,8.721s-8.722,4.364-13.086,4.1a25.244,25.244,0,0,0-9.3,1.744s-2.052,11.629-11.341,10.466C788.3,444.234,770.562,443.359,780.159,430.862Z" transform="translate(-318.008 -219.912)"/><path class="aa" d="M780.159,429.171s-2.62,4.1-9.016.294-21.513-3.79-21.513-3.79L734.513,418.7s1.163-25.008,4.651-26.171c0,0-6.977,2.907-9.016-2.907L718.52,420.443s.876,6.69,7.271,9.3L749.917,444.6s10.466,6.4,10.466,22.388,2.052,41.288,2.052,41.288,33.709,20.33,47.39-3.482c0,0-5.527-28.2-1.744-35.187,0,0,1.163-18.319,10.466-21.807l24.112-22.129s4.651-2.907,1.163-11.341l-8.14-20.063s-4.946,6.977-9.016,3.489l4.651,19.776-9.3,8.721s-8.722,4.364-13.086,4.1a25.244,25.244,0,0,0-9.3,1.744s-2.052,11.629-11.341,10.466C788.3,442.551,770.562,441.668,780.159,429.171Z" transform="translate(-318.008 -219.384)"/><path class="ad" d="M808.556,448.32l-.116.157Z" transform="translate(-346.42 -237.931)"/><path class="ad" d="M842.668,426.532l-24.133,22.1c-9.3,3.489-10.466,21.807-10.466,21.807-3.783,6.977,1.744,35.187,1.744,35.187-13.681,23.846-47.4,3.489-47.4,3.489s-.068-.834-.178-2.305c-.1-1.286-.226-3.065-.369-5.178-.191-2.736-.41-6.04-.616-9.624-.458-7.832-.876-16.957-.876-24.181,0-15.993-10.466-22.388-10.466-22.388L731.854,434.3l-6.033-3.707c-6.4-2.62-7.271-9.3-7.271-9.3l11.629-30.823c1.9,5.431,8.12,3.249,8.927,2.941-3.42,1.546-4.563,26.137-4.563,26.137l15.117,6.977s15.117,0,21.52,3.783c5.472,3.215,8.147.752,8.831-.062-9.193,12.313,8.325,13.14,8.325,13.14,9.3,1.163,11.341-10.466,11.341-10.466s4.946-2.052,9.3-1.744,13.086-4.1,13.086-4.1l9.3-8.721-4.651-19.776c4.1,3.489,9.016-3.489,9.016-3.489l8.14,20.063C847.34,423.618,842.668,426.532,842.668,426.532Z" transform="translate(-318.018 -219.653)"/><path class="aa" d="M811.87,430.86a27.955,27.955,0,0,1-.28,5.472,14.241,14.241,0,0,0,16.417,8.571,10.261,10.261,0,0,1,1.033-7.634Z" transform="translate(-347.415 -232.414)"/><circle class="z" cx="14.248" cy="14.248" r="14.248" transform="translate(463.17 183.178)"/><path class="aa" d="M824.322,410.656a7.833,7.833,0,0,0,.438,4.268,7.73,7.73,0,0,0,1.368,1.751l2.982,3.071a7.858,7.858,0,0,1,2.127,3.03c.862,2.873-1.683,5.725-1.6,8.728a3.886,3.886,0,0,0,4.405,1.628,7.527,7.527,0,0,0,1.84-1.019l2.88-1.97c2.223-1.519,4.549-3.16,5.664-5.609,1.17-2.579.773-5.561.828-8.393a43.573,43.573,0,0,0,.075-5.178,15.252,15.252,0,0,0-1.368-4.747,17.246,17.246,0,0,0-6.088-7.408,12.074,12.074,0,0,0-9.276-1.8,6.26,6.26,0,0,1-1.573.281,7.814,7.814,0,0,1-2.873-1.088,5.91,5.91,0,0,0-6.9,1.991c-.629.889-.992,1.95-1.649,2.811-.978,1.286-2.572,2.1-3.235,3.571s-.219,3.153-.363,4.74a13.048,13.048,0,0,1-1.293,4.07c1.614-.561,2.4-2.326,3.42-3.68a9.063,9.063,0,0,1,6.669-3.379c.889-.041,2.538-.109,3.242.568C824.986,407.749,824.418,409.617,824.322,410.656Z" transform="translate(-347.137 -221.336)"/><path class="ae" d="M824.744,409.794a7.833,7.833,0,0,0,.438,4.268,7.728,7.728,0,0,0,1.368,1.751l2.983,3.071a7.861,7.861,0,0,1,2.127,3.03c.862,2.873-1.683,5.725-1.6,8.728a3.886,3.886,0,0,0,4.405,1.628,7.523,7.523,0,0,0,1.908-1.047l2.88-1.97c2.223-1.519,4.549-3.16,5.664-5.609,1.17-2.579.773-5.561.828-8.393a43.624,43.624,0,0,0,.075-5.178,15.255,15.255,0,0,0-1.368-4.747,17.244,17.244,0,0,0-6.088-7.408,12.073,12.073,0,0,0-9.276-1.8,6.26,6.26,0,0,1-1.573.281,7.814,7.814,0,0,1-2.873-1.088,5.91,5.91,0,0,0-6.9,1.991c-.629.889-.992,1.95-1.648,2.811-.978,1.286-2.572,2.1-3.235,3.571s-.219,3.153-.363,4.74a13.053,13.053,0,0,1-1.293,4.07c1.614-.561,2.4-2.326,3.42-3.68a9.064,9.064,0,0,1,6.669-3.379c.889-.041,2.538-.109,3.242.568C825.428,406.887,824.86,408.733,824.744,409.794Z" transform="translate(-347.292 -221.055)"/><g class="p" transform="translate(411.463 170.824)"><path d="M808.46,448.444c.082-.1.123-.164.123-.164Z" transform="translate(-757.889 -408.743)"/><path d="M879.233,403.351a3.742,3.742,0,0,1-2.593-.971l.281,1.177A4.1,4.1,0,0,0,879.233,403.351Z" transform="translate(-779.432 -394.24)"/><path d="M804.218,450.044c-7.285,11.184,9.118,12,9.118,12a9.049,9.049,0,0,0,3.735-.267,9.717,9.717,0,0,1-2.278,0s-17.58-.869-8.263-13.216a4.733,4.733,0,0,1-2.312,1.484Z" transform="translate(-755.96 -408.831)"/><path d="M846.77,450.217a12.266,12.266,0,0,0,3.5-.417,9.465,9.465,0,0,1-2.052.13,19.07,19.07,0,0,0-5.383.54A17.1,17.1,0,0,1,846.77,450.217Z" transform="translate(-768.749 -409.223)"/><path d="M878.734,417.343l-8.14-20.063a14.91,14.91,0,0,1-1.053,1.279l7.743,19.05c3.489,8.434-1.163,11.341-1.163,11.341l-24.133,22.1c-9.3,3.489-10.466,21.807-10.466,21.807-3.783,6.977,1.744,35.187,1.744,35.187a21.722,21.722,0,0,1-14.3,10.89A21.61,21.61,0,0,0,844.7,507.752s-5.527-28.2-1.744-35.187c0,0,1.163-18.318,10.466-21.807l24.133-22.074S882.229,425.77,878.734,417.343Z" transform="translate(-764.37 -392.629)"/><path d="M745.882,394.73a10.788,10.788,0,0,1-1.84.527c-3.188,2.8-4.262,25.932-4.262,25.932l15.117,6.977s15.117,0,21.52,3.783c3.133,1.854,5.356,1.82,6.84,1.307a9.494,9.494,0,0,1-5.356-1.594c-6.4-3.783-21.52-3.783-21.52-3.783l-15.158-6.97S742.386,395.893,745.882,394.73Z" transform="translate(-736.189 -391.823)"/><path d="M741.692,394.03c-2.209.287-5.247-.034-6.478-3.55l-.684,1.813C736.432,394.995,739.914,394.5,741.692,394.03Z" transform="translate(-734.53 -390.48)"/></g><path class="aa" d="M767.414,512.248c-.458-7.832-.876-16.957-.876-24.181,0-15.993-10.466-22.388-10.466-22.388L738,454.55c10.534,2.736,24.55,7.449,25.809,13,2.052,9.016,5.814,9.884,4.364,25.309a174.353,174.353,0,0,0-.759,19.393Z" transform="translate(-324.163 -239.9)"/><path class="aa" d="M782.852,571.35s2.62,8.14-4.651,13.373" transform="translate(-336.865 -276.804)"/><path class="aa" d="M844.55,571.35s.876,6.108,4.364,8.434" transform="translate(-357.829 -276.804)"/><path class="aa" d="M773.969,741.634s-13.954,6.4-25.877,8.14c-6.047.883-8.277-.923-8.626-2.839-.4,2.237,1.368,5.069,8.626,4,11.923-1.744,25.877-8.14,25.877-8.14a24.612,24.612,0,0,0,.1-2.907C774.017,740.957,773.969,741.634,773.969,741.634Z" transform="translate(-324.61 -330.057)"/><path class="aa" d="M865.67,741.458c-11.341-1.163-19.776-10.178-19.776-10.178s.431-6.881,2.5-11.28c-2.319,4.344-2.791,11.861-2.791,11.861s8.434,9.016,19.776,10.178c5.794.6,8.325-1.012,8.947-2.736C873.372,740.788,870.8,741.985,865.67,741.458Z" transform="translate(-358.161 -323.772)"/><rect class="i" width="72.946" height="48.628" transform="translate(345.604 227.031)"/><path class="af" d="M1000.669,589.227s-12.819-43.525,2.4-75.552a68.739,68.739,0,0,0,5.561-43.094,115.6,115.6,0,0,0-6.109-20.241" transform="translate(-405.562 -238.569)"/><path class="n" d="M1010.677,416.229c0,5.335-9.659,20.8-9.659,20.8s-9.658-15.466-9.658-20.8a9.659,9.659,0,1,1,19.317,0Z" transform="translate(-404.216 -224.74)"/><path class="n" d="M1033.973,457c-2.9,4.48-19.413,12.21-19.413,12.21s.3-18.229,3.2-22.71a9.658,9.658,0,1,1,16.213,10.5Z" transform="translate(-411.546 -235.964)"/><path class="n" d="M1031.332,529.2c-4.788,2.4-22.922.746-22.922.746s9.46-15.589,14.228-17.99a9.659,9.659,0,1,1,8.694,17.245Z" transform="translate(-409.603 -257.679)"/><path class="n" d="M1018.194,585.322c-4.289,3.174-22.464,4.6-22.464,4.6s6.69-16.964,10.979-20.131a9.658,9.658,0,1,1,11.486,15.529Z" transform="translate(-405.596 -275.714)"/><path class="n" d="M983.548,475.586c3.824,3.714,21.65,7.565,21.65,7.565s-4.364-17.7-8.208-21.424a9.658,9.658,0,1,0-13.462,13.852Z" transform="translate(-400.816 -241.304)"/><path class="n" d="M967.765,540.16c4.788,2.4,22.922.746,22.922.746s-9.46-15.589-14.228-17.99a9.659,9.659,0,0,0-8.694,17.245Z" transform="translate(-395.143 -261.203)"/><path class="n" d="M962.661,605.952c4.289,3.174,22.464,4.6,22.464,4.6s-6.69-16.964-10.979-20.131a9.658,9.658,0,1,0-11.486,15.529Z" transform="translate(-393.91 -282.232)"/><path class="af" d="M932.695,577.881s-8.058-27.361,1.512-47.5a43.217,43.217,0,0,0,3.5-27.108,72.689,72.689,0,0,0-3.838-12.723" transform="translate(-384.677 -251.274)"/><path class="n" d="M938.958,469.229c0,3.352-6.074,13.079-6.074,13.079s-6.074-9.727-6.074-13.079a6.074,6.074,0,0,1,12.142,0Z" transform="translate(-383.82 -242.683)"/><path class="n" d="M953.613,494.689c-1.819,2.811-12.2,7.675-12.2,7.675s.192-11.464,2.011-14.276a6.074,6.074,0,1,1,10.192,6.6Z" transform="translate(-388.433 -249.572)"/><path class="n" d="M951.943,540.211c-3,1.512-14.412.465-14.412.465s5.951-9.8,8.94-11.307a6.074,6.074,0,0,1,5.472,10.842Z" transform="translate(-387.207 -263.354)"/><path class="n" d="M943.685,575.479c-2.7,2-14.125,2.893-14.125,2.893s4.207-10.664,6.9-12.655a6.074,6.074,0,0,1,7.223,9.761Z" transform="translate(-384.689 -274.681)"/><path class="n" d="M921.852,506.391c2.408,2.339,13.612,4.788,13.612,4.788s-2.736-11.129-5.151-13.469a6.074,6.074,0,1,0-8.461,8.708Z" transform="translate(-381.625 -252.949)"/><path class="n" d="M911.99,547.041c3,1.512,14.413.465,14.413.465s-5.951-9.8-8.94-11.307a6.074,6.074,0,0,0-5.472,10.842Z" transform="translate(-378.125 -265.512)"/><path class="n" d="M908.717,588.351c2.7,2,14.125,2.893,14.125,2.893s-4.207-10.664-6.9-12.655a6.074,6.074,0,1,0-7.223,9.761Z" transform="translate(-377.28 -278.681)"/></g></g></g></svg>